<?xml version="1.0" encoding="UTF-8"?>
<svg version="1.1" xmlns="http://www.w3.org/2000/svg" width="1024" height="1024">
<path d="M0 0 C337.92 0 675.84 0 1024 0 C1024 337.92 1024 675.84 1024 1024 C686.08 1024 348.16 1024 0 1024 C0 686.08 0 348.16 0 0 Z " fill="#FEFEFE" transform="translate(0,0)"/>
<path d="M0 0 C0.84304688 -0.01611328 1.68609375 -0.03222656 2.5546875 -0.04882812 C12.3772168 -0.0563377 20.66507202 3.20807197 29.30859375 7.62890625 C30.13722427 8.04486557 30.9658548 8.46082489 31.81959534 8.88938904 C34.44609036 10.21042749 37.06672638 11.54265411 39.6875 12.875 C41.40785055 13.74093519 43.12855174 14.60617413 44.84960938 15.47070312 C53.20532181 19.67874351 61.51733304 23.96171979 69.78515625 28.33984375 C79.5251717 33.49641919 89.37716381 38.41624648 99.25 43.3125 C109.09450304 48.1947022 118.91696943 53.10060235 128.625 58.25 C139.07405553 63.79086933 149.65654807 69.05440941 160.25 74.3125 C170.71829721 79.50846968 181.17829256 84.70471521 191.5 90.1875 C203.30342911 96.45361068 215.28361967 102.36546724 227.25 108.3125 C240.94992631 115.1210677 254.62532191 121.95080972 268.12890625 129.14257812 C271.77834097 131.08054663 275.46537774 132.93528837 279.16932678 134.76664734 C294.50636931 142.47582849 303.83735617 152.95233217 310.1875 168.8125 C312.37498046 176.01831798 312.40064351 182.87440955 312.40390015 190.34675598 C312.4082824 191.56903717 312.41266465 192.79131836 312.4171797 194.05063838 C312.42821535 197.43614709 312.4347831 200.82160982 312.43936086 204.20712984 C312.44533435 207.86178982 312.45693993 211.51643296 312.46765137 215.17108154 C312.49213774 223.99483675 312.50679818 232.81859751 312.51971143 241.64237621 C312.5234265 244.13714201 312.52739948 246.63190726 312.5314641 249.12667251 C312.55670675 264.63812978 312.57874723 280.14958801 312.59119225 295.66106129 C312.59412167 299.25149857 312.59708337 302.84193583 312.60009766 306.43237305 C312.60084371 307.32469581 312.60158976 308.21701857 312.60235842 309.13638141 C312.61499744 323.57402913 312.64820301 338.01155329 312.68989949 352.44914333 C312.73241315 367.29212905 312.75589824 382.13505168 312.76111281 396.97809809 C312.76451654 405.3036524 312.77614832 413.62901371 312.80921555 421.95450783 C312.83734735 429.04878658 312.84815833 436.14283275 312.83702008 443.23716293 C312.83186648 446.85054711 312.83450182 450.46344527 312.85948563 454.07675743 C313.00465479 476.29292545 311.90322843 495.14557453 295.9375 512.125 C284.42664505 523.08678521 270.47790142 527.64868024 254.82827377 527.56976891 C253.48259824 527.57502802 253.48259824 527.57502802 252.10973734 527.58039337 C249.11799684 527.58966178 246.12645295 527.58479586 243.13470459 527.57992554 C240.96228034 527.58366408 238.78985743 527.58826642 236.61743665 527.59365618 C230.65841388 527.60587614 224.69944729 527.60562689 218.74041486 527.60326743 C212.3094428 527.60285902 205.8784887 527.61390074 199.44752502 527.62338257 C186.8523178 527.64042136 174.25712656 527.64551782 161.66190901 527.64660732 C151.42341976 527.64752717 141.18493656 527.65164782 130.94644928 527.65800858 C127.99701032 527.65980372 125.04757135 527.66158335 122.09813237 527.66335833 C120.9982081 527.66402148 120.9982081 527.66402148 119.87606313 527.66469802 C99.25646062 527.67700254 78.63686022 527.68489953 58.01725388 527.68401146 C57.24019974 527.6839803 56.4631456 527.68394914 55.66254436 527.68391704 C51.72430263 527.68375083 47.78606091 527.68355275 43.84781918 527.68334763 C43.06570014 527.68330774 42.28358109 527.68326785 41.47776147 527.68322675 C39.89612705 527.68314587 38.31449263 527.68306228 36.73285821 527.68297596 C12.12705762 527.68175055 -12.47868784 527.6967635 -37.08447266 527.72412109 C-64.74268681 527.75485997 -92.40086474 527.77205252 -120.05909705 527.77019465 C-123.00979344 527.77004539 -125.96048983 527.76994798 -128.91118622 527.76988602 C-129.6376976 527.76986271 -130.36420897 527.7698394 -131.11273585 527.76981538 C-142.79000587 527.76975391 -154.46722793 527.78251031 -166.1444837 527.79975055 C-177.88554343 527.81672617 -189.62652729 527.81832338 -201.36759266 527.8055319 C-207.72474632 527.7990021 -214.08172659 527.7988859 -220.43886375 527.8162384 C-226.26320118 527.83197289 -232.08722778 527.82910122 -237.91155764 527.81167014 C-240.01378332 527.80860114 -242.11603223 527.81222876 -244.21823052 527.82339029 C-263.86088259 527.92073972 -279.71946913 524.95919629 -294.625 511.0625 C-306.62017985 498.27352148 -309.90320811 484.14456485 -309.89044189 467.1999054 C-309.89341302 465.96930726 -309.89638414 464.73870912 -309.8994453 463.47082013 C-309.90661121 460.06232221 -309.90930349 456.65387471 -309.91004276 453.24537289 C-309.9118976 449.56629127 -309.91944708 445.88722047 -309.92617798 442.20814514 C-309.93974423 434.16669751 -309.94578332 426.12525487 -309.95018864 418.08379769 C-309.95295387 413.06006213 -309.95719173 408.03632849 -309.96169281 403.01259422 C-309.9738831 389.09570213 -309.98418298 375.17881157 -309.9875679 361.26191425 C-309.98778747 360.37167356 -309.98800703 359.48143287 -309.98823325 358.56421519 C-309.98845153 357.67187955 -309.98866981 356.77954392 -309.9888947 355.8601678 C-309.98933816 354.05204221 -309.98978473 352.24391661 -309.99023438 350.43579102 C-309.9904558 349.53890378 -309.99067723 348.64201654 -309.99090537 347.7179509 C-309.99485242 333.18898891 -310.01230465 318.6600771 -310.0355939 304.13113449 C-310.05932687 289.20455562 -310.07177063 274.27800192 -310.07293582 259.35140389 C-310.07385147 250.97467736 -310.07957608 242.59801623 -310.09775543 234.22130775 C-310.11318268 227.08773414 -310.11826142 219.95424615 -310.11001733 212.82065902 C-310.10612013 209.1838365 -310.10699464 205.54718627 -310.12107468 201.91038513 C-310.13622761 197.96018744 -310.12791956 194.01023 -310.11749268 190.06001282 C-310.12554908 188.92108041 -310.13360548 187.782148 -310.14190602 186.60870248 C-310.04634961 171.09039712 -304.66641839 157.21004548 -293.73066711 146.05519104 C-283.34141014 136.14968976 -269.08049807 130.21683102 -256.36328125 123.94140625 C-254.41060164 122.97008551 -252.45831342 121.99797758 -250.50639343 121.02513123 C-245.39958836 118.48211279 -240.28822977 115.94839422 -235.17559814 113.41711426 C-227.01362356 109.37397241 -218.85909456 105.31582814 -210.70390892 101.25901604 C-207.89237887 99.86192255 -205.07911027 98.46838857 -202.26545715 97.07557678 C-192.88020006 92.42194801 -183.55704851 87.67294645 -174.29963398 82.76964664 C-168.11826155 79.4964204 -161.89228012 76.32460861 -155.625 73.21875 C-154.06821533 72.44319763 -154.06821533 72.44319763 -152.47998047 71.65197754 C-148.15554357 69.49772875 -143.82865632 67.3484229 -139.50195312 65.19873047 C-128.03845328 59.49984212 -116.6057933 53.76439653 -105.29638672 47.76464844 C-98.77695545 44.3096178 -92.19595633 40.99172044 -85.58306885 37.71987915 C-75.88650874 32.92002862 -66.23806332 28.04610449 -56.68774414 22.96020508 C-47.38124991 18.02233838 -37.93608522 13.35632831 -28.49560547 8.68115234 C-26.66675045 7.76948942 -24.84279538 6.84792934 -23.02392578 5.91650391 C-15.08465734 1.86307207 -8.92533029 -0.03350349 0 0 Z " fill="#040404" transform="translate(510.75,248.6875)"/>
<path d="M0 0 C1.28565487 -0.00384115 2.57130974 -0.00768229 3.89592385 -0.01163983 C5.33616787 -0.01085949 6.77641183 -0.00998069 8.21665573 -0.00901413 C9.73615779 -0.01159623 11.25565917 -0.01460896 12.7751596 -0.01801753 C16.96624135 -0.0261091 21.15730599 -0.0278783 25.34839463 -0.028615 C29.8624952 -0.03046183 34.37658681 -0.03800731 38.89068222 -0.04475021 C48.76874957 -0.05834965 58.64681288 -0.06436084 68.52488804 -0.06876087 C74.68963902 -0.07152074 80.85438842 -0.07575763 87.01913834 -0.08026505 C104.07813163 -0.09246012 121.13712366 -0.10275876 138.19612122 -0.10614014 C139.83482462 -0.10646949 139.83482462 -0.10646949 141.50663315 -0.10680549 C142.60176 -0.10702377 143.69688685 -0.10724204 144.82519937 -0.10746694 C147.04445028 -0.10791041 149.2637012 -0.10835697 151.48295212 -0.10880661 C152.5837841 -0.10902804 153.68461609 -0.10924947 154.81880662 -0.10947761 C172.6590247 -0.11342619 190.49920195 -0.130881 208.33940426 -0.15416613 C226.64343904 -0.17786435 244.94745333 -0.1903413 263.25150371 -0.19150805 C273.53346144 -0.19242571 283.815366 -0.19820069 294.09730911 -0.21632767 C302.85240082 -0.23170807 311.60742291 -0.23686134 320.36252555 -0.22858956 C324.83107321 -0.22467566 329.29948059 -0.22564864 333.76801109 -0.23964691 C337.85776217 -0.25234163 341.94726692 -0.2512275 346.03701743 -0.2390562 C347.51754147 -0.23709148 348.99808268 -0.24021325 350.47858253 -0.24890056 C352.48980803 -0.25995604 354.50111447 -0.25073497 356.51234436 -0.24050903 C357.62991631 -0.24110612 358.74748826 -0.24170321 359.89892602 -0.24231839 C365.13806036 0.3875148 369.00899017 2.56139511 372.32035446 6.63142776 C372.81148727 7.21924026 373.30262009 7.80705276 373.80863571 8.41267776 C376.35855371 12.06728337 376.22969145 15.73789635 376.40702438 20.05867386 C376.45061333 21.1106546 376.45061333 21.1106546 376.49508286 22.18388748 C376.7496406 28.67033044 376.90218148 35.15927642 377.02260494 41.64946938 C377.10508966 46.00294019 377.22146699 50.34947699 377.42069626 54.69929886 C378.6715189 82.71056587 378.6715189 82.71056587 374.32481003 89.92476273 C370.31492404 94.19777811 365.74013412 96.70925656 360.4013176 98.99525833 C356.2209533 100.97966414 352.67555023 103.83971359 349.00785446 106.63142776 C347.51054954 107.71848299 346.01085672 108.80226359 344.50785446 109.88142776 C343.76535446 110.41767776 343.02285446 110.95392776 342.25785446 111.50642776 C281.50785446 155.38142777 281.50785446 155.38142777 279.2580986 157.00618362 C277.75719897 158.09021193 276.25638524 159.17435919 274.7556572 160.25862503 C271.02011479 162.95730431 267.28313192 165.65394088 263.54301071 168.34627151 C255.80949106 173.91680522 248.1067481 179.5245276 240.44535446 185.19392776 C233.81103251 190.10049141 227.1258186 194.9227595 220.36234665 199.64973831 C216.66179545 202.24003765 212.99543743 204.86626293 209.36722946 207.55720901 C186.65856954 224.37458292 186.65856954 224.37458292 175.64847946 223.63533401 C167.65590454 222.11012371 161.69725567 217.30895274 155.4509697 212.34431839 C150.68692574 208.57520538 145.73150426 205.15070591 140.69535446 201.75642776 C133.89093221 197.15813208 127.25283683 192.40227571 120.7112236 187.43831253 C115.43959623 183.43953395 110.08303995 179.57777603 104.68754196 175.74861526 C100.527184 172.79573708 96.39214173 169.80815134 92.25785446 166.81892776 C91.50004684 166.27115677 90.74223923 165.72338577 89.96146774 165.15901566 C88.41500521 164.04103783 86.86861892 162.92295454 85.32230759 161.80476761 C81.55192427 159.07879638 77.77981753 156.35521242 74.00785446 153.63142776 C72.50784587 152.54810632 71.00784588 151.46477298 69.50785446 150.38142776 C68.76535446 149.84517776 68.02285446 149.30892776 67.25785446 148.75642776 C45.88285446 133.31892776 45.88285446 133.31892776 24.50785446 117.88142776 C23.39325851 117.07644852 23.39325851 117.07644852 22.25614548 116.25520706 C20.76182491 115.17596653 19.26752142 114.09670235 17.77323532 113.01741409 C13.93648236 110.24626308 10.09939935 107.4755709 6.26176071 104.70564651 C5.08323532 103.85486526 5.08323532 103.85486526 3.88090134 102.98689651 C2.40705634 101.92293741 0.93310871 100.85912047 -0.54097366 99.79549026 C-1.89626453 98.81702391 -3.24186377 97.82495456 -4.5760994 96.81796646 C-6.98780888 95.05873834 -6.98780888 95.05873834 -9.78331375 93.66888809 C-14.49806373 90.95281925 -17.48807218 88.94401571 -18.98575211 83.55853653 C-19.47385914 79.0922941 -19.3372525 74.63778897 -19.20698929 70.15486526 C-19.19660793 68.49917557 -19.19054014 66.84345376 -19.18857193 65.1877327 C-19.17325106 61.72848176 -19.12194614 58.27238962 -19.04170609 54.81404495 C-18.93970402 50.39086429 -18.90324212 45.97032432 -18.89060497 41.54607582 C-18.87783787 38.131397 -18.84287032 34.71725617 -18.79997826 31.30283356 C-18.77977296 29.67226018 -18.76349359 28.04163307 -18.75128365 26.41098022 C-18.72837465 24.12984384 -18.67865883 21.85087816 -18.62080765 19.57039261 C-18.58436394 17.62802216 -18.58436394 17.62802216 -18.54718399 15.6464119 C-17.46924639 8.81997753 -13.21706477 5.10690979 -7.99214554 1.13142776 C-5.25009282 -0.2395986 -3.07098643 0.00342725 0 0 Z " fill="#FEFEFE" transform="translate(332.9921455383301,370.8685722351074)"/>
<path d="M0 0 C6.82254586 4.13259937 13.30853821 8.61598554 19.75 13.3125 C22.83085102 15.54511254 25.91518874 17.77286433 29 20 C29.6820752 20.49564453 30.36415039 20.99128906 31.06689453 21.50195312 C43.95092071 30.79660659 55.66678599 35.67299024 72 34 C85.51254137 31.39014915 96.04862643 23.90517221 106.76098633 15.71191406 C113.98294497 10.19346815 121.47033441 5.08652941 129 0 C133.7798489 3.02308974 137.95908992 6.4406482 142.1875 10.1875 C147.44224069 14.79495013 152.75966082 19.29274167 158.19140625 23.69140625 C161.50298593 26.41344185 164.7531 29.20143139 168 32 C173.01310059 36.31939586 178.0853771 40.55097436 183.22265625 44.72265625 C186.34396633 47.28204272 189.42440998 49.88604122 192.5 52.5 C197.26905969 56.5501864 202.0791259 60.54352242 206.9296875 64.49609375 C216.51151921 72.31028475 226.05570308 80.16693174 235.47705078 88.17407227 C239.58856592 91.66416897 243.74901309 95.08939259 247.9296875 98.49609375 C257.50861889 106.30791948 267.05229952 114.15972837 276.46826172 122.16748047 C280.66328182 125.73028404 284.91914278 129.21325575 289.1875 132.6875 C292.88014364 135.72367366 296.52121788 138.8184997 300.1640625 141.9140625 C303.5805954 144.81244823 307.02504838 147.671551 310.5 150.5 C314.67553919 153.90297247 318.8185309 157.34145863 322.9375 160.8125 C323.48148438 161.26882813 324.02546875 161.72515625 324.5859375 162.1953125 C327.5245881 164.67960815 330.32437283 167.23411071 333 170 C328.36206963 172.34456768 324.2180746 172.28123602 319.14716911 172.25447559 C318.25083738 172.25768207 317.35450564 172.26088855 316.43101233 172.26419219 C313.41194149 172.27252781 310.39306719 172.26655545 307.37399292 172.26069641 C305.19391979 172.26371545 303.01384773 172.26760369 300.83377755 172.27228898 C294.83081702 172.28260928 288.82791595 172.28037694 282.82495046 172.27610838 C276.35592958 172.27364852 269.8869233 172.282646 263.41790771 172.29014587 C250.74081328 172.30333901 238.06373772 172.30468979 225.38663779 172.30234561 C215.08786611 172.30051426 204.78910065 172.30226922 194.49032974 172.30657005 C193.01169629 172.30717245 191.53306284 172.30777365 190.05442939 172.30837366 C187.82640695 172.30928089 185.59838452 172.31018955 183.37036208 172.31110601 C162.65251626 172.31953707 141.93467278 172.32387007 121.21682549 172.31969929 C120.04495876 172.31946472 120.04495876 172.31946472 118.84941796 172.31922542 C114.88957796 172.31841961 110.92973796 172.31757384 106.96989797 172.31671212 C105.79019769 172.31645549 105.79019769 172.31645549 104.58666508 172.31619367 C102.99623896 172.31584702 101.40581284 172.31549849 99.81538672 172.31514808 C75.05610962 172.30978823 50.29686812 172.31772816 25.53759766 172.33618164 C-2.26550149 172.35687935 -30.06857858 172.3676288 -57.87168586 172.36360615 C-60.83377766 172.36321079 -63.79586947 172.36284925 -66.75796127 172.36250877 C-67.48732996 172.36241804 -68.21669864 172.36232731 -68.9681694 172.36223383 C-79.99618515 172.36106608 -91.02417868 172.36772949 -102.05218887 172.37832069 C-114.58638038 172.39034597 -127.1205193 172.39168293 -139.65471162 172.37953053 C-146.05499428 172.37361507 -152.45518088 172.37261564 -158.85545731 172.38453293 C-164.70651394 172.39530144 -170.55739327 172.39239722 -176.40844129 172.37827124 C-178.53282634 172.37559924 -180.6572249 172.37806822 -182.78159679 172.38600711 C-185.65423365 172.39600292 -188.52624086 172.38778648 -191.39885139 172.37473011 C-192.65552757 172.38569413 -192.65552757 172.38569413 -193.93759114 172.39687964 C-199.60958255 172.34290322 -199.60958255 172.34290322 -201.7345246 170.47656895 C-202.36093492 169.74566732 -202.36093492 169.74566732 -203 169 C-195.66261832 162.6694999 -188.30084297 156.38673446 -180.77734375 150.27734375 C-177.65603633 147.71795946 -174.5754997 145.11406209 -171.5 142.5 C-166.65045949 138.37892208 -161.74839036 134.33008517 -156.8125 130.3125 C-153.68200334 127.73853608 -150.58827539 125.12430914 -147.5 122.5 C-142.64683401 118.37594815 -137.74187035 114.32334463 -132.80078125 110.3046875 C-129.73224213 107.77966925 -126.70960188 105.20515231 -123.6875 102.625 C-119.25148397 98.84207508 -114.73399357 95.19467263 -110.125 91.625 C-104.37972845 87.16948329 -98.86904559 82.48856595 -93.39941406 77.70019531 C-88.92239615 73.78368043 -84.36457063 69.98672933 -79.7421875 66.2421875 C-76.62999565 63.69746083 -73.56282516 61.10371492 -70.5 58.5 C-65.7295993 54.44856982 -60.91773754 50.45450586 -56.06640625 46.5 C-45.1586016 37.60701277 -34.33709443 28.63006422 -23.67626953 19.44238281 C-15.92831509 12.7754858 -8.15262722 6.17240252 0 0 Z " fill="#FEFEFE" transform="translate(447,581)"/>
<path d="M0 0 C1.88334158 3.20004673 2.25038203 5.54829094 2.25168228 9.24152279 C2.25689778 10.30883914 2.26211327 11.37615549 2.26748681 12.47581476 C2.26302537 13.64749203 2.25856392 14.81916929 2.25396729 16.02635193 C2.25864726 17.89441194 2.25864726 17.89441194 2.26342177 19.80021054 C2.27002811 23.25907661 2.26763782 26.71772611 2.26144934 30.17657912 C2.25693188 33.90602663 2.26390513 37.63545496 2.26940918 41.36489868 C2.27831264 48.67197764 2.27637686 55.97901557 2.2705839 63.28609615 C2.26607081 69.22417701 2.26545297 75.16224636 2.26763153 81.10032845 C2.267938 81.94482805 2.26824446 82.78932765 2.26856022 83.65941815 C2.26919966 85.37490837 2.26984808 87.09039857 2.2705054 88.80588878 C2.27621157 104.90072878 2.26964648 120.99554602 2.25890467 137.09038229 C2.24997051 150.90442317 2.25151952 164.71843043 2.26074219 178.5324707 C2.27144254 194.56738195 2.27566051 210.60227322 2.26951766 226.63718754 C2.26888055 228.34674362 2.26825181 230.0562997 2.26763153 231.76585579 C2.2671687 233.02761097 2.2671687 233.02761097 2.26669653 234.31485615 C2.26496876 240.24619374 2.26788649 246.17751867 2.27259064 252.10885429 C2.27819693 259.33669641 2.2766884 266.56449509 2.26602915 273.79233222 C2.26076879 277.48101414 2.25872186 281.16962358 2.26532745 284.85830498 C2.27237552 288.85448804 2.26396621 292.85048772 2.25396729 296.84666443 C2.26065945 298.60083424 2.26065945 298.60083424 2.26748681 300.39044183 C2.25966357 301.99532798 2.25966357 301.99532798 2.25168228 303.63263607 C2.25135758 304.55508678 2.25103287 305.4775375 2.25069833 306.42794126 C1.97493402 309.25716635 1.17186473 311.42291427 0 314 C-3.42673696 312.47260916 -6.05841282 310.45668829 -8.9375 308.0625 C-9.90429688 307.26070312 -10.87109375 306.45890625 -11.8671875 305.6328125 C-15.67001646 302.44497041 -19.45176835 299.23219287 -23.23217773 296.01782227 C-26.44719636 293.29089542 -29.6956484 290.61884592 -33 288 C-37.45253701 284.47116597 -41.78685979 280.81770671 -46.11328125 277.13671875 C-49.54571609 274.21995487 -53.00592815 271.34306574 -56.5 268.5 C-61.1045358 264.75212202 -65.64019191 260.93016556 -70.1640625 257.0859375 C-73.5805954 254.18755177 -77.02504838 251.328449 -80.5 248.5 C-84.53983452 245.2117626 -88.53083277 241.87268539 -92.5 238.5 C-98.27542544 233.59454156 -104.11992099 228.77971335 -110 224 C-116.44612089 218.76017074 -122.83625827 213.46380453 -129.16577148 208.08422852 C-132.5591538 205.20479732 -135.98249917 202.36810273 -139.4375 199.5625 C-144.30049424 195.60556582 -149.05700203 191.53564058 -153.80615234 187.44384766 C-158.22031766 183.64836633 -162.70333198 179.94722087 -167.22265625 176.27734375 C-170.90316725 173.25942826 -174.52709537 170.177202 -178.15332031 167.09448242 C-181.67472693 164.10632038 -185.22928462 161.16415027 -188.8125 158.25 C-192.1248408 155.54475979 -195.43027502 152.83399845 -198.6875 150.0625 C-199.33074219 149.51722656 -199.97398437 148.97195313 -200.63671875 148.41015625 C-202 147 -202 147 -202 145 C-199.5772109 143.1445729 -197.14377181 141.40465769 -194.625 139.6875 C-193.05790647 138.60125126 -191.49152309 137.51397743 -189.92578125 136.42578125 C-189.11189941 135.86197754 -188.29801758 135.29817383 -187.45947266 134.71728516 C-183.5434501 131.98298868 -179.67794211 129.18013275 -175.8125 126.375 C-170.55362193 122.5663246 -165.28831651 118.76770449 -160 115 C-152.41325803 109.59222937 -144.86409663 104.13272731 -137.31445312 98.67333984 C-133.54406981 95.94736861 -129.77196306 93.22378466 -126 90.5 C-124.49999141 89.41667856 -122.99999142 88.33334521 -121.5 87.25 C-76.5 54.75 -76.5 54.75 -74.25024414 53.12524414 C-72.7493445 52.04121584 -71.24853078 50.95706858 -69.74780273 49.87280273 C-66.01226033 47.17412345 -62.27527746 44.47748688 -58.53515625 41.78515625 C-50.0293795 35.65861775 -41.56248191 29.48335865 -33.13427734 23.25048828 C-26.78376299 18.56005057 -20.3887032 13.93362123 -13.9609375 9.34960938 C-10.74283284 7.04200742 -7.61520693 4.71351981 -4.61328125 2.12890625 C-2 0 -2 0 0 0 Z " fill="#FEFEFD" transform="translate(798,421)"/>
<path d="M0 0 C2.88003366 1.35349565 5.36624164 2.89784064 7.9140625 4.80078125 C8.66558594 5.35894531 9.41710937 5.91710937 10.19140625 6.4921875 C10.99449219 7.09289062 11.79757813 7.69359375 12.625 8.3125 C14.3458036 9.59058537 16.0671709 10.86791207 17.7890625 12.14453125 C18.66079102 12.79115723 19.53251953 13.4377832 20.43066406 14.10400391 C24.26501812 16.93349779 28.13074767 19.71851861 32 22.5 C38.1968389 26.95979471 44.35976587 31.46260051 50.5 36 C58.87937675 42.19025495 67.31107571 48.30474458 75.76611328 54.39111328 C79.51359784 57.09012128 83.25655845 59.79538884 87 62.5 C88.49997854 63.58336304 89.99997854 64.66669638 91.5 65.75 C136.5 98.25 136.5 98.25 138.75024414 99.87524414 C140.2493445 100.95788254 141.74853062 102.0404022 143.24780273 103.12280273 C147.01228168 105.84079823 150.77521904 108.56088068 154.53515625 111.28515625 C163.91577312 118.07829556 173.34240963 124.80114804 182.81640625 131.46337891 C186.73503222 134.22096297 190.64839009 136.98601159 194.5625 139.75 C196.00128053 140.76565554 197.44008052 141.7812835 198.87890625 142.796875 C199.90886719 143.52390625 200.93882812 144.2509375 202 145 C200.08401557 149.27604856 197.11185571 151.74733049 193.5625 154.6875 C192.93287354 155.21786865 192.30324707 155.7482373 191.65454102 156.29467773 C187.06583248 160.14891399 182.42928605 163.94508783 177.77734375 167.72265625 C174.65603733 170.28203972 171.57546576 172.88589916 168.5 175.5 C164.55349519 178.85447127 160.58357928 182.17221829 156.5625 185.4375 C152.31607033 188.89274627 148.14716345 192.42711952 144 196 C139.06684679 200.24766124 134.08680384 204.42446138 129.03515625 208.53125 C125.22140962 211.63329359 121.42157897 214.75198058 117.625 217.875 C116.52647705 218.77835083 116.52647705 218.77835083 115.40576172 219.69995117 C111.00763467 223.32403521 106.64616231 226.98672402 102.3125 230.6875 C98.00211333 234.3668375 93.60441961 237.90383999 89.125 241.375 C83.35187242 245.85076833 77.82062188 250.55929617 72.3269043 255.37231445 C68.17076495 259.00751194 63.92935822 262.4948645 59.58984375 265.91015625 C56.33278035 268.538405 53.16757582 271.26507692 50 274 C46.05373464 277.4066772 42.09277344 280.76886308 38 284 C33.30842793 287.70549452 28.78578954 291.58855213 24.25976562 295.49243164 C19.68228294 299.4339444 15.04180776 303.28360564 10.34765625 307.0859375 C8.34917734 308.71531298 6.38967747 310.37845293 4.4375 312.0625 C2 314 2 314 0 314 C-1.6330605 310.40486542 -2.25028464 307.60920116 -2.25168228 303.66945744 C-2.25689778 302.60773353 -2.26211327 301.54600962 -2.26748681 300.45211226 C-2.26302537 299.29181185 -2.25856392 298.13151144 -2.25396729 296.93605042 C-2.25708727 295.69869532 -2.26020725 294.46134023 -2.26342177 293.18648952 C-2.27002098 289.75461577 -2.26764289 286.32296077 -2.26144934 282.89110029 C-2.25692731 279.18891799 -2.2639074 275.48675491 -2.26940918 271.78457642 C-2.27830775 264.53277851 -2.27637903 257.28102197 -2.2705839 250.02922244 C-2.26606889 244.13551045 -2.26545381 238.24181007 -2.26763153 232.34809685 C-2.267938 231.50957218 -2.26824446 230.67104751 -2.26856022 229.807113 C-2.26919966 228.10370406 -2.26984809 226.40029511 -2.2705054 224.69688617 C-2.27621014 208.71932707 -2.26964872 192.7417909 -2.25890467 176.76423555 C-2.24997066 163.05399385 -2.25151968 149.34378601 -2.26074219 135.63354492 C-2.27144508 119.71507918 -2.27565908 103.79663355 -2.26951766 87.87816471 C-2.26888056 86.18068278 -2.26825182 84.48320085 -2.26763153 82.78571892 C-2.26732298 81.95051272 -2.26701443 81.11530652 -2.26669653 80.25479104 C-2.26496953 74.36849533 -2.26788484 68.48221239 -2.27259064 62.59591866 C-2.27819975 55.42192802 -2.27668243 48.24798116 -2.26602915 41.07399554 C-2.26077261 37.41353633 -2.25871538 33.75315009 -2.26532745 30.09269142 C-2.27238538 26.12539741 -2.26395818 22.15822293 -2.25396729 18.19093323 C-2.25842873 17.03286354 -2.26289017 15.87479385 -2.26748681 14.68163115 C-2.24163118 9.40524351 -2.16406158 4.92143176 0 0 Z " fill="#FEFEFE" transform="translate(226,421)"/>
<path d="M0 0 C1.96197709 0.982316 3.92153513 1.96947537 5.87890625 2.9609375 C6.92949219 3.48945313 7.98007812 4.01796875 9.0625 4.5625 C16.15675796 8.14406712 23.19959278 11.81517949 30.21655273 15.54541016 C37.48150549 19.39322656 44.83251527 23.06243509 52.20507812 26.69921875 C57.40330681 29.27475425 62.55855415 31.91756491 67.68188477 34.63829041 C76.24781249 39.18609688 84.87856355 43.58400203 93.56640625 47.89453125 C95.26325562 48.73704941 95.26325562 48.73704941 96.99438477 49.59658813 C101.67492186 51.91862372 106.35649047 54.23853476 111.04199219 56.55053711 C114.51113093 58.26404554 117.97651248 59.98495896 121.44140625 61.70703125 C122.50375488 62.22889511 123.56610352 62.75075897 124.66064453 63.28843689 C125.6401709 63.77647293 126.61969727 64.26450897 127.62890625 64.76733398 C128.91861328 65.40492897 128.91861328 65.40492897 130.234375 66.05540466 C132.44140625 67.3359375 132.44140625 67.3359375 135.44140625 70.3359375 C32.48140625 70.3359375 -70.47859375 70.3359375 -176.55859375 70.3359375 C-172.97894781 67.65120305 -169.43872775 65.61203413 -165.4765625 63.60546875 C-164.78532791 63.25135422 -164.09409332 62.89723969 -163.38191223 62.53239441 C-161.17176285 61.40086559 -158.95908861 60.27438957 -156.74609375 59.1484375 C-153.8636385 57.6776255 -150.98233895 56.20456589 -148.1015625 54.73046875 C-147.38354462 54.36349884 -146.66552673 53.99652893 -145.92575073 53.61843872 C-141.25143164 51.223133 -136.61007107 48.77286113 -131.984375 46.28515625 C-125.0409017 42.5582293 -118.01277991 39.02080755 -110.95172119 35.52282715 C-102.97090025 31.56467866 -95.00388223 27.57861699 -87.03295898 23.60058594 C-84.84744652 22.51034589 -82.66157577 21.42082375 -80.4753418 20.33203125 C-67.40368406 13.8212063 -54.39558621 7.21624989 -41.49958801 0.36376953 C-25.25730294 -8.23715278 -16.37758649 -7.99885251 0 0 Z " fill="#FDFDFD" transform="translate(532.55859375,277.6640625)"/>
<path d="M0 0 C1.27897012 -0.00679667 1.27897012 -0.00679667 2.58377802 -0.01373065 C5.44568752 -0.02640802 8.30740754 -0.02475213 11.16934204 -0.02310181 C13.21928656 -0.02908496 15.26922881 -0.03589001 17.31916809 -0.04345703 C22.89148245 -0.06114556 28.4637354 -0.0658136 34.03607512 -0.0670886 C38.68576604 -0.06898641 43.33544263 -0.07634256 47.98512805 -0.08343279 C58.95392941 -0.09972506 69.92269794 -0.10460097 80.89151001 -0.10317993 C92.21139964 -0.10197814 103.53109871 -0.12308555 114.85094011 -0.15466726 C124.56569294 -0.18080634 134.28038345 -0.19154823 143.99517119 -0.19026911 C149.79912932 -0.1897588 155.60291813 -0.19548033 161.40684128 -0.21662521 C166.8651789 -0.23596773 172.32318499 -0.23615927 177.78153419 -0.22159195 C179.78504354 -0.21949783 181.78857343 -0.2242405 183.7920475 -0.23631287 C186.52703949 -0.25172596 189.26088275 -0.24248337 191.99584961 -0.22705078 C193.18535361 -0.24248147 193.18535361 -0.24248147 194.39888799 -0.25822389 C200.5379299 -0.18166295 203.91972343 1.91129665 208.56240845 5.95492554 C210.30759041 9.75326274 209.80019402 13.31931052 208.62490845 17.26742554 C206.4266703 19.97294941 204.72934178 21.71520887 201.62490845 23.26742554 C198.89253694 23.37194066 196.18527745 23.41522076 193.45236206 23.41459656 C192.16982988 23.42011159 192.16982988 23.42011159 190.86138797 23.42573804 C187.97949559 23.4368028 185.09763923 23.44062344 182.21572876 23.44442749 C180.15622848 23.45069003 178.09672934 23.45733664 176.03723145 23.46434021 C170.42969177 23.48176931 164.82216063 23.49230714 159.21460056 23.50054574 C155.71325341 23.50569177 152.21190893 23.51176767 148.71056366 23.51805687 C137.76166922 23.53711413 126.81278156 23.55134422 115.86387372 23.55966884 C103.21408139 23.56944472 90.56446388 23.59577126 77.91473317 23.63616973 C68.14482702 23.66630323 58.37497106 23.68113508 48.60501933 23.68444985 C42.76636811 23.68680347 36.92790354 23.69580447 31.08930206 23.72091103 C25.59653376 23.74414831 20.10407557 23.74844239 14.6112709 23.73814964 C12.59485723 23.73765312 10.57842852 23.74400779 8.56206131 23.75770569 C5.8094638 23.7753592 3.0579871 23.76835071 0.3053894 23.75517273 C-0.89199738 23.7716266 -0.89199738 23.7716266 -2.11357379 23.78841287 C-7.31363942 23.72829478 -10.22238108 22.66170341 -14.37509155 19.26742554 C-16.73630818 16.26224073 -16.79369792 13.00254116 -16.69540405 9.23226929 C-16.17896739 6.0643712 -14.66262753 4.42787618 -12.37509155 2.26742554 C-8.56762588 -0.36029784 -4.44721418 -0.01727216 0 0 Z " fill="#070707" transform="translate(415.3750915527344,422.7325744628906)"/>
<path d="M0 0 C0.7228275 -0.00538554 1.44565499 -0.01077108 2.19038635 -0.01631981 C4.60708409 -0.03060197 7.02323429 -0.02349526 9.43995667 -0.01637268 C11.17478373 -0.02207613 12.90960705 -0.02904029 14.64442444 -0.03717041 C19.35311281 -0.0551198 24.06161501 -0.05393009 28.77032733 -0.04822803 C32.70181562 -0.04513874 36.63326802 -0.05122573 40.56475121 -0.05726677 C49.83975238 -0.07131624 59.11466145 -0.0697472 68.3896637 -0.05836487 C77.95720548 -0.04688297 87.52446697 -0.06095957 97.09197181 -0.08776134 C105.30782974 -0.10991471 113.52359965 -0.11655654 121.73948532 -0.11068493 C126.64581358 -0.10731331 131.55196217 -0.10974404 136.4582653 -0.12693596 C141.07207515 -0.14239722 145.68546962 -0.13845869 150.299263 -0.11963081 C151.99154391 -0.11594266 153.68385554 -0.11906002 155.37610817 -0.1295166 C157.68855496 -0.14271339 159.99962396 -0.13119228 162.31201172 -0.11352539 C163.60524573 -0.11331611 164.89847975 -0.11310682 166.23090267 -0.1128912 C171.11013709 0.58722001 174.01316722 2.90152126 177.65699768 6.07518005 C179.40779136 9.88573101 179.01171885 13.44781009 177.71949768 17.38768005 C175.5130901 20.11361965 172.85696254 21.81894762 169.71949768 23.38768005 C167.41705339 23.49530932 165.11141408 23.53607327 162.80648804 23.54830933 C162.08692938 23.55339715 161.36737072 23.55848497 160.62600726 23.56372696 C158.20250148 23.57948717 155.77902559 23.58798592 153.35548401 23.59642029 C151.6227245 23.60595594 149.88996691 23.61584697 148.1572113 23.62606812 C142.45534026 23.65748886 136.75345447 23.67772499 131.05152893 23.6962738 C130.08187753 23.69957113 129.11222614 23.70286845 128.11319137 23.70626569 C118.97018005 23.73704983 109.8271655 23.76376109 100.68411732 23.78068447 C88.98450351 23.8025926 77.28534858 23.84456113 65.58591825 23.91412205 C57.36248454 23.96135708 49.13917466 23.98561745 40.91560954 23.99288136 C36.00290353 23.99783874 31.09071437 24.0129275 26.1781559 24.05262566 C21.55444653 24.08949623 16.93154907 24.09790043 12.30772018 24.08461952 C10.61260289 24.08467347 8.91744959 24.09496801 7.22246742 24.11637115 C-7.17975137 24.28847908 -7.17975137 24.28847908 -11.78070068 20.49279785 C-15.12932839 16.33331441 -15.78340465 13.61979849 -15.28050232 8.38768005 C-12.49705534 1.27442666 -7.12167243 0.01338502 0 0 Z " fill="#070707" transform="translate(414.28050231933594,471.61231994628906)"/>
<path d="M0 0 C-0.33 20.46 -0.66 40.92 -1 62 C-4.63725471 60.18137265 -7.78891402 58.12039801 -11.0625 55.75 C-11.66247803 55.31888916 -12.26245605 54.88777832 -12.88061523 54.44360352 C-18.95972422 50.06077567 -24.9789607 45.59623178 -30.99755859 41.13085938 C-36.83574818 36.81366244 -42.77151692 32.68188419 -48.82421875 28.671875 C-49.54222656 28.12015625 -50.26023438 27.5684375 -51 27 C-51 26.34 -51 25.68 -51 25 C-50.37246826 24.68885254 -49.74493652 24.37770508 -49.09838867 24.05712891 C-36.62226974 17.86395574 -24.19769349 11.59659744 -11.8984375 5.05859375 C-2.33688501 0 -2.33688501 0 0 0 Z " fill="#F7F7F6" transform="translate(294,379)"/>
<path d="M0 0 C3.38914807 1.35565923 6.5471789 2.71235967 9.7902832 4.33837891 C10.71086014 4.79870514 11.63143707 5.25903137 12.57991028 5.73330688 C13.5602977 6.22608124 14.54068512 6.71885559 15.55078125 7.2265625 C16.56472458 7.73424164 17.57866791 8.24192078 18.62333679 8.76498413 C21.85400325 10.38311077 25.08326584 12.00401718 28.3125 13.625 C30.50576733 14.72414202 32.69912566 15.82310248 34.89257812 16.921875 C40.26277544 19.61247944 45.63182355 22.30536606 51 25 C51 25.66 51 26.32 51 27 C49.34326172 28.27929688 49.34326172 28.27929688 47.0546875 29.71875 C42.26970575 32.80535283 37.69282717 36.10284891 33.125 39.5 C32.31998047 40.09514404 31.51496094 40.69028809 30.68554688 41.3034668 C26.33268993 44.52217018 21.98901894 47.75305051 17.6484375 50.98828125 C16.78589355 51.62894531 15.92334961 52.26960938 15.03466797 52.9296875 C13.37228758 54.16454375 11.712364 55.40271576 10.05517578 56.64453125 C9.30478027 57.20140625 8.55438477 57.75828125 7.78125 58.33203125 C7.12189453 58.82421143 6.46253906 59.3163916 5.78320312 59.82348633 C4 61 4 61 1 62 C0.67 41.54 0.34 21.08 0 0 Z " fill="#F8F8F8" transform="translate(730,379)"/>
</svg>
