<?xml version="1.0" encoding="UTF-8"?>
<svg version="1.1" xmlns="http://www.w3.org/2000/svg" width="48" height="48">
<path d="M0 0 C3.47251459 2.42570157 5.1509319 4.25180137 6.16113281 8.43017578 C6.8636314 16.25801718 6.07057667 23.47378163 5.4296875 31.40478516 C-7.1103125 31.40478516 -19.6503125 31.40478516 -32.5703125 31.40478516 C-34.44396265 8.21836451 -34.44396265 8.21836451 -31.09667969 3.19189453 C-21.33700552 -5.8521717 -11.2170516 -6.23474465 0 0 Z " fill="#1EA0E3" transform="translate(37.5703125,8.59521484375)"/>
<path d="M0 0 C9.24 0 18.48 0 28 0 C28 2.31 28 4.62 28 7 C25.87747288 9.01860517 24.35600322 10.17367754 21.875 11.5625 C21.30523438 11.92923828 20.73546875 12.29597656 20.1484375 12.67382812 C17.06583252 14.49887039 15.4199872 15.08294747 11.875 14.3828125 C9.21528832 13.103549 6.63975717 11.85776324 4.125 10.3125 C3.34382812 9.85488281 2.56265625 9.39726562 1.7578125 8.92578125 C0 7 0 7 0 0 Z " fill="#F1F2F2" transform="translate(10,13)"/>
<path d="M0 0 C2.95247775 1.43877275 5.64807725 3.17547664 8.375 5 C9.11105469 5.47695312 9.84710938 5.95390625 10.60546875 6.4453125 C12.41156489 7.6181022 14.20689794 8.80743806 16 10 C15.62890625 11.921875 15.62890625 11.921875 15 14 C12.9375 15.25 12.9375 15.25 11 16 C11 13.69 11 11.38 11 9 C1.76 9 -7.48 9 -17 9 C-17 11.31 -17 13.62 -17 16 C-19.5 14.6875 -19.5 14.6875 -22 13 C-22 12.01 -22 11.02 -22 10 C-19.72452399 7.91502332 -17.00030139 6.42400287 -14.375 4.8125 C-13.66214844 4.34908203 -12.94929687 3.88566406 -12.21484375 3.40820312 C-8.0666423 0.82414002 -5.00017026 -1.02217022 0 0 Z " fill="#016FC7" transform="translate(27,4)"/>
<path d="M0 0 C0 7.26 0 14.52 0 22 C-13.84615385 15.23076923 -13.84615385 15.23076923 -18 12 C-18 11.34 -18 10.68 -18 10 C-16.45532227 8.85498047 -16.45532227 8.85498047 -14.31640625 7.6171875 C-13.55392578 7.17246094 -12.79144531 6.72773438 -12.00585938 6.26953125 C-10.79639648 5.57923828 -10.79639648 5.57923828 -9.5625 4.875 C-8.76005859 4.40707031 -7.95761719 3.93914063 -7.13085938 3.45703125 C-1.15916545 0 -1.15916545 0 0 0 Z " fill="#34BDEF" transform="translate(43,17)"/>
<path d="M0 0 C2.475 0.99 2.475 0.99 5 2 C4.75 3.875 4.75 3.875 4 6 C1.9375 7.25 1.9375 7.25 0 8 C0 5.36 0 2.72 0 0 Z " fill="#0664AD" transform="translate(38,12)"/>
</svg>
